<mxfile host="app.diagrams.net" modified="2023-03-16T19:56:06.536Z" agent="5.0 (Windows NT 10.0; Win64; x64) AppleWebKit/537.36 (KHTML, like Gecko) Chrome/111.0.0.0 Safari/537.36" etag="wSA4chixJ3w1rk5ZUzl_" version="21.0.6" type="github">
  <diagram name="Page-1" id="4NM99ZyFPqKUCob5nruf">
    <mxGraphModel dx="880" dy="465" grid="1" gridSize="10" guides="1" tooltips="1" connect="1" arrows="1" fold="1" page="1" pageScale="1" pageWidth="1169" pageHeight="827" math="0" shadow="0">
      <root>
        <mxCell id="0" />
        <mxCell id="1" parent="0" />
        <mxCell id="zz_cG9ig-DloKgr5GdJk-34" value="Erweitert" style="endArrow=block;endSize=16;endFill=0;html=1;rounded=0;exitX=1;exitY=0.5;exitDx=0;exitDy=0;" edge="1" parent="1" source="zz_cG9ig-DloKgr5GdJk-86">
          <mxGeometry width="160" relative="1" as="geometry">
            <mxPoint x="881.0000000000002" y="1540" as="sourcePoint" />
            <mxPoint x="785" y="1360.8510638297873" as="targetPoint" />
            <Array as="points">
              <mxPoint x="820" y="1340" />
            </Array>
          </mxGeometry>
        </mxCell>
        <mxCell id="zz_cG9ig-DloKgr5GdJk-36" value="Punkt2Dimensional" style="swimlane;fontStyle=0;align=center;verticalAlign=top;childLayout=stackLayout;horizontal=1;startSize=26;horizontalStack=0;resizeParent=1;resizeLast=0;collapsible=1;marginBottom=0;rounded=0;shadow=0;strokeWidth=1;" vertex="1" parent="1">
          <mxGeometry x="601" y="80" width="300" height="220" as="geometry">
            <mxRectangle x="130" y="380" width="160" height="26" as="alternateBounds" />
          </mxGeometry>
        </mxCell>
        <mxCell id="zz_cG9ig-DloKgr5GdJk-37" value="- double x" style="text;align=left;verticalAlign=top;spacingLeft=4;spacingRight=4;overflow=hidden;rotatable=0;points=[[0,0.5],[1,0.5]];portConstraint=eastwest;" vertex="1" parent="zz_cG9ig-DloKgr5GdJk-36">
          <mxGeometry y="26" width="300" height="26" as="geometry" />
        </mxCell>
        <mxCell id="zz_cG9ig-DloKgr5GdJk-38" value="- double y" style="text;align=left;verticalAlign=top;spacingLeft=4;spacingRight=4;overflow=hidden;rotatable=0;points=[[0,0.5],[1,0.5]];portConstraint=eastwest;rounded=0;shadow=0;html=0;" vertex="1" parent="zz_cG9ig-DloKgr5GdJk-36">
          <mxGeometry y="52" width="300" height="26" as="geometry" />
        </mxCell>
        <mxCell id="zz_cG9ig-DloKgr5GdJk-39" value="" style="line;html=1;strokeWidth=1;align=left;verticalAlign=middle;spacingTop=-1;spacingLeft=3;spacingRight=3;rotatable=0;labelPosition=right;points=[];portConstraint=eastwest;" vertex="1" parent="zz_cG9ig-DloKgr5GdJk-36">
          <mxGeometry y="78" width="300" height="8" as="geometry" />
        </mxCell>
        <mxCell id="zz_cG9ig-DloKgr5GdJk-40" value="+ Punkt2Dimensional(double x, double y)" style="text;align=left;verticalAlign=top;spacingLeft=4;spacingRight=4;overflow=hidden;rotatable=0;points=[[0,0.5],[1,0.5]];portConstraint=eastwest;fontStyle=4" vertex="1" parent="zz_cG9ig-DloKgr5GdJk-36">
          <mxGeometry y="86" width="300" height="26" as="geometry" />
        </mxCell>
        <mxCell id="zz_cG9ig-DloKgr5GdJk-41" value="+ double getX()" style="text;align=left;verticalAlign=top;spacingLeft=4;spacingRight=4;overflow=hidden;rotatable=0;points=[[0,0.5],[1,0.5]];portConstraint=eastwest;" vertex="1" parent="zz_cG9ig-DloKgr5GdJk-36">
          <mxGeometry y="112" width="300" height="26" as="geometry" />
        </mxCell>
        <mxCell id="zz_cG9ig-DloKgr5GdJk-42" value="+ double getY()" style="text;align=left;verticalAlign=top;spacingLeft=4;spacingRight=4;overflow=hidden;rotatable=0;points=[[0,0.5],[1,0.5]];portConstraint=eastwest;" vertex="1" parent="zz_cG9ig-DloKgr5GdJk-36">
          <mxGeometry y="138" width="300" height="26" as="geometry" />
        </mxCell>
        <mxCell id="zz_cG9ig-DloKgr5GdJk-43" value="+ abstand(Punkt2Dimensional andererPunkt)" style="text;align=left;verticalAlign=top;spacingLeft=4;spacingRight=4;overflow=hidden;rotatable=0;points=[[0,0.5],[1,0.5]];portConstraint=eastwest;" vertex="1" parent="zz_cG9ig-DloKgr5GdJk-36">
          <mxGeometry y="164" width="300" height="26" as="geometry" />
        </mxCell>
        <mxCell id="zz_cG9ig-DloKgr5GdJk-44" value="Main" style="swimlane;fontStyle=0;align=center;verticalAlign=top;childLayout=stackLayout;horizontal=1;startSize=26;horizontalStack=0;resizeParent=1;resizeLast=0;collapsible=1;marginBottom=0;rounded=0;shadow=0;strokeWidth=1;" vertex="1" parent="1">
          <mxGeometry x="231" y="80" width="300" height="202" as="geometry">
            <mxRectangle x="130" y="380" width="160" height="26" as="alternateBounds" />
          </mxGeometry>
        </mxCell>
        <mxCell id="zz_cG9ig-DloKgr5GdJk-45" value="" style="line;html=1;strokeWidth=1;align=left;verticalAlign=middle;spacingTop=-1;spacingLeft=3;spacingRight=3;rotatable=0;labelPosition=right;points=[];portConstraint=eastwest;" vertex="1" parent="zz_cG9ig-DloKgr5GdJk-44">
          <mxGeometry y="26" width="300" height="8" as="geometry" />
        </mxCell>
        <mxCell id="zz_cG9ig-DloKgr5GdJk-46" value="+ Main()" style="text;align=left;verticalAlign=top;spacingLeft=4;spacingRight=4;overflow=hidden;rotatable=0;points=[[0,0.5],[1,0.5]];portConstraint=eastwest;" vertex="1" parent="zz_cG9ig-DloKgr5GdJk-44">
          <mxGeometry y="34" width="300" height="42" as="geometry" />
        </mxCell>
        <mxCell id="zz_cG9ig-DloKgr5GdJk-47" value="Rohrleitung" style="swimlane;fontStyle=0;align=center;verticalAlign=top;childLayout=stackLayout;horizontal=1;startSize=26;horizontalStack=0;resizeParent=1;resizeLast=0;collapsible=1;marginBottom=0;rounded=0;shadow=0;strokeWidth=1;" vertex="1" parent="1">
          <mxGeometry x="581" y="350" width="300" height="202" as="geometry">
            <mxRectangle x="130" y="380" width="160" height="26" as="alternateBounds" />
          </mxGeometry>
        </mxCell>
        <mxCell id="zz_cG9ig-DloKgr5GdJk-48" value="-double  laenge" style="text;align=left;verticalAlign=top;spacingLeft=4;spacingRight=4;overflow=hidden;rotatable=0;points=[[0,0.5],[1,0.5]];portConstraint=eastwest;" vertex="1" parent="zz_cG9ig-DloKgr5GdJk-47">
          <mxGeometry y="26" width="300" height="26" as="geometry" />
        </mxCell>
        <mxCell id="zz_cG9ig-DloKgr5GdJk-49" value="- Rohrtype rohrtyp" style="text;align=left;verticalAlign=top;spacingLeft=4;spacingRight=4;overflow=hidden;rotatable=0;points=[[0,0.5],[1,0.5]];portConstraint=eastwest;fontStyle=4" vertex="1" parent="zz_cG9ig-DloKgr5GdJk-47">
          <mxGeometry y="52" width="300" height="26" as="geometry" />
        </mxCell>
        <mxCell id="zz_cG9ig-DloKgr5GdJk-50" value="- double  auslastung" style="text;align=left;verticalAlign=top;spacingLeft=4;spacingRight=4;overflow=hidden;rotatable=0;points=[[0,0.5],[1,0.5]];portConstraint=eastwest;" vertex="1" parent="zz_cG9ig-DloKgr5GdJk-47">
          <mxGeometry y="78" width="300" height="26" as="geometry" />
        </mxCell>
        <mxCell id="zz_cG9ig-DloKgr5GdJk-51" value="" style="line;html=1;strokeWidth=1;align=left;verticalAlign=middle;spacingTop=-1;spacingLeft=3;spacingRight=3;rotatable=0;labelPosition=right;points=[];portConstraint=eastwest;" vertex="1" parent="zz_cG9ig-DloKgr5GdJk-47">
          <mxGeometry y="104" width="300" height="8" as="geometry" />
        </mxCell>
        <mxCell id="zz_cG9ig-DloKgr5GdJk-52" value="+ Rohrleitung(double laenge, Rohrtype rohrtyp,&#xa; double volumenstrom)" style="text;align=left;verticalAlign=top;spacingLeft=4;spacingRight=4;overflow=hidden;rotatable=0;points=[[0,0.5],[1,0.5]];portConstraint=eastwest;" vertex="1" parent="zz_cG9ig-DloKgr5GdJk-47">
          <mxGeometry y="112" width="300" height="48" as="geometry" />
        </mxCell>
        <mxCell id="zz_cG9ig-DloKgr5GdJk-53" value="+ toString()" style="text;align=left;verticalAlign=top;spacingLeft=4;spacingRight=4;overflow=hidden;rotatable=0;points=[[0,0.5],[1,0.5]];portConstraint=eastwest;" vertex="1" parent="zz_cG9ig-DloKgr5GdJk-47">
          <mxGeometry y="160" width="300" height="42" as="geometry" />
        </mxCell>
        <mxCell id="zz_cG9ig-DloKgr5GdJk-54" value="Rohrtype" style="swimlane;fontStyle=0;align=center;verticalAlign=top;childLayout=stackLayout;horizontal=1;startSize=26;horizontalStack=0;resizeParent=1;resizeLast=0;collapsible=1;marginBottom=0;rounded=0;shadow=0;strokeWidth=1;" vertex="1" parent="1">
          <mxGeometry x="230" y="350" width="300" height="220" as="geometry">
            <mxRectangle x="130" y="380" width="160" height="26" as="alternateBounds" />
          </mxGeometry>
        </mxCell>
        <mxCell id="zz_cG9ig-DloKgr5GdJk-55" value="-  int innererDurchmesser" style="text;align=left;verticalAlign=top;spacingLeft=4;spacingRight=4;overflow=hidden;rotatable=0;points=[[0,0.5],[1,0.5]];portConstraint=eastwest;" vertex="1" parent="zz_cG9ig-DloKgr5GdJk-54">
          <mxGeometry y="26" width="300" height="26" as="geometry" />
        </mxCell>
        <mxCell id="zz_cG9ig-DloKgr5GdJk-56" value="- String Beschreibung" style="text;align=left;verticalAlign=top;spacingLeft=4;spacingRight=4;overflow=hidden;rotatable=0;points=[[0,0.5],[1,0.5]];portConstraint=eastwest;fontStyle=4" vertex="1" parent="zz_cG9ig-DloKgr5GdJk-54">
          <mxGeometry y="52" width="300" height="26" as="geometry" />
        </mxCell>
        <mxCell id="zz_cG9ig-DloKgr5GdJk-57" value="- double maxFlow" style="text;align=left;verticalAlign=top;spacingLeft=4;spacingRight=4;overflow=hidden;rotatable=0;points=[[0,0.5],[1,0.5]];portConstraint=eastwest;" vertex="1" parent="zz_cG9ig-DloKgr5GdJk-54">
          <mxGeometry y="78" width="300" height="26" as="geometry" />
        </mxCell>
        <mxCell id="zz_cG9ig-DloKgr5GdJk-58" value="" style="line;html=1;strokeWidth=1;align=left;verticalAlign=middle;spacingTop=-1;spacingLeft=3;spacingRight=3;rotatable=0;labelPosition=right;points=[];portConstraint=eastwest;" vertex="1" parent="zz_cG9ig-DloKgr5GdJk-54">
          <mxGeometry y="104" width="300" height="8" as="geometry" />
        </mxCell>
        <mxCell id="zz_cG9ig-DloKgr5GdJk-59" value="+ Rohrtype(int innererDurchmesser,&#xa; double maxFlow)" style="text;align=left;verticalAlign=top;spacingLeft=4;spacingRight=4;overflow=hidden;rotatable=0;points=[[0,0.5],[1,0.5]];portConstraint=eastwest;" vertex="1" parent="zz_cG9ig-DloKgr5GdJk-54">
          <mxGeometry y="112" width="300" height="48" as="geometry" />
        </mxCell>
        <mxCell id="zz_cG9ig-DloKgr5GdJk-60" value="+ getBeschreibung()" style="text;align=left;verticalAlign=top;spacingLeft=4;spacingRight=4;overflow=hidden;rotatable=0;points=[[0,0.5],[1,0.5]];portConstraint=eastwest;" vertex="1" parent="zz_cG9ig-DloKgr5GdJk-54">
          <mxGeometry y="160" width="300" height="20" as="geometry" />
        </mxCell>
        <mxCell id="zz_cG9ig-DloKgr5GdJk-61" value="+ HolenSiesichMaxFlow()" style="text;align=left;verticalAlign=top;spacingLeft=4;spacingRight=4;overflow=hidden;rotatable=0;points=[[0,0.5],[1,0.5]];portConstraint=eastwest;" vertex="1" parent="zz_cG9ig-DloKgr5GdJk-54">
          <mxGeometry y="180" width="300" height="40" as="geometry" />
        </mxCell>
        <mxCell id="zz_cG9ig-DloKgr5GdJk-73" value="KnotenunterRohrsystem(abstract)" style="swimlane;fontStyle=0;align=center;verticalAlign=top;childLayout=stackLayout;horizontal=1;startSize=26;horizontalStack=0;resizeParent=1;resizeLast=0;collapsible=1;marginBottom=0;rounded=0;shadow=0;strokeWidth=1;" vertex="1" parent="1">
          <mxGeometry x="536" y="620" width="330" height="354" as="geometry">
            <mxRectangle x="550" y="140" width="160" height="26" as="alternateBounds" />
          </mxGeometry>
        </mxCell>
        <mxCell id="zz_cG9ig-DloKgr5GdJk-74" value="# position" style="text;align=left;verticalAlign=top;spacingLeft=4;spacingRight=4;overflow=hidden;rotatable=0;points=[[0,0.5],[1,0.5]];portConstraint=eastwest;" vertex="1" parent="zz_cG9ig-DloKgr5GdJk-73">
          <mxGeometry y="26" width="330" height="26" as="geometry" />
        </mxCell>
        <mxCell id="zz_cG9ig-DloKgr5GdJk-75" value="# id" style="text;align=left;verticalAlign=top;spacingLeft=4;spacingRight=4;overflow=hidden;rotatable=0;points=[[0,0.5],[1,0.5]];portConstraint=eastwest;rounded=0;shadow=0;html=0;" vertex="1" parent="zz_cG9ig-DloKgr5GdJk-73">
          <mxGeometry y="52" width="330" height="26" as="geometry" />
        </mxCell>
        <mxCell id="zz_cG9ig-DloKgr5GdJk-76" value="- bearbeitet" style="text;align=left;verticalAlign=top;spacingLeft=4;spacingRight=4;overflow=hidden;rotatable=0;points=[[0,0.5],[1,0.5]];portConstraint=eastwest;rounded=0;shadow=0;html=0;" vertex="1" parent="zz_cG9ig-DloKgr5GdJk-73">
          <mxGeometry y="78" width="330" height="26" as="geometry" />
        </mxCell>
        <mxCell id="zz_cG9ig-DloKgr5GdJk-77" value="" style="line;html=1;strokeWidth=1;align=left;verticalAlign=middle;spacingTop=-1;spacingLeft=3;spacingRight=3;rotatable=0;labelPosition=right;points=[];portConstraint=eastwest;" vertex="1" parent="zz_cG9ig-DloKgr5GdJk-73">
          <mxGeometry y="104" width="330" height="8" as="geometry" />
        </mxCell>
        <mxCell id="zz_cG9ig-DloKgr5GdJk-78" value="+ KnotenunterRohrsystem(String id, Point2D position)" style="text;align=left;verticalAlign=top;spacingLeft=4;spacingRight=4;overflow=hidden;rotatable=0;points=[[0,0.5],[1,0.5]];portConstraint=eastwest;rounded=0;shadow=0;html=0;" vertex="1" parent="zz_cG9ig-DloKgr5GdJk-73">
          <mxGeometry y="112" width="330" height="26" as="geometry" />
        </mxCell>
        <mxCell id="zz_cG9ig-DloKgr5GdJk-79" value="+ VhatNachfolger()  (abstract)" style="text;align=left;verticalAlign=top;spacingLeft=4;spacingRight=4;overflow=hidden;rotatable=0;points=[[0,0.5],[1,0.5]];portConstraint=eastwest;rounded=0;shadow=0;html=0;" vertex="1" parent="zz_cG9ig-DloKgr5GdJk-73">
          <mxGeometry y="138" width="330" height="26" as="geometry" />
        </mxCell>
        <mxCell id="zz_cG9ig-DloKgr5GdJk-80" value="+ getVolumenstrom() (abstract)" style="text;align=left;verticalAlign=top;spacingLeft=4;spacingRight=4;overflow=hidden;rotatable=0;points=[[0,0.5],[1,0.5]];portConstraint=eastwest;" vertex="1" parent="zz_cG9ig-DloKgr5GdJk-73">
          <mxGeometry y="164" width="330" height="26" as="geometry" />
        </mxCell>
        <mxCell id="zz_cG9ig-DloKgr5GdJk-81" value="+ getPosition()" style="text;align=left;verticalAlign=top;spacingLeft=4;spacingRight=4;overflow=hidden;rotatable=0;points=[[0,0.5],[1,0.5]];portConstraint=eastwest;" vertex="1" parent="zz_cG9ig-DloKgr5GdJk-73">
          <mxGeometry y="190" width="330" height="26" as="geometry" />
        </mxCell>
        <mxCell id="zz_cG9ig-DloKgr5GdJk-82" value="+ getNachfolger() (abstract)" style="text;align=left;verticalAlign=top;spacingLeft=4;spacingRight=4;overflow=hidden;rotatable=0;points=[[0,0.5],[1,0.5]];portConstraint=eastwest;" vertex="1" parent="zz_cG9ig-DloKgr5GdJk-73">
          <mxGeometry y="216" width="330" height="26" as="geometry" />
        </mxCell>
        <mxCell id="zz_cG9ig-DloKgr5GdJk-83" value="+ berechneAbstandZuNachfolger() (abstract)" style="text;align=left;verticalAlign=top;spacingLeft=4;spacingRight=4;overflow=hidden;rotatable=0;points=[[0,0.5],[1,0.5]];portConstraint=eastwest;" vertex="1" parent="zz_cG9ig-DloKgr5GdJk-73">
          <mxGeometry y="242" width="330" height="28" as="geometry" />
        </mxCell>
        <mxCell id="zz_cG9ig-DloKgr5GdJk-84" value="+ setVolumenstrom(double neuerVolumenstrom)  (abstract)" style="text;align=left;verticalAlign=top;spacingLeft=4;spacingRight=4;overflow=hidden;rotatable=0;points=[[0,0.5],[1,0.5]];portConstraint=eastwest;" vertex="1" parent="zz_cG9ig-DloKgr5GdJk-73">
          <mxGeometry y="270" width="330" height="28" as="geometry" />
        </mxCell>
        <mxCell id="zz_cG9ig-DloKgr5GdJk-85" value="+ isBearbeitet()" style="text;align=left;verticalAlign=top;spacingLeft=4;spacingRight=4;overflow=hidden;rotatable=0;points=[[0,0.5],[1,0.5]];portConstraint=eastwest;" vertex="1" parent="zz_cG9ig-DloKgr5GdJk-73">
          <mxGeometry y="298" width="330" height="28" as="geometry" />
        </mxCell>
        <mxCell id="zz_cG9ig-DloKgr5GdJk-86" value="+ setBearbeitet(boolean bearbeitet)" style="text;align=left;verticalAlign=top;spacingLeft=4;spacingRight=4;overflow=hidden;rotatable=0;points=[[0,0.5],[1,0.5]];portConstraint=eastwest;" vertex="1" parent="zz_cG9ig-DloKgr5GdJk-73">
          <mxGeometry y="326" width="330" height="28" as="geometry" />
        </mxCell>
      </root>
    </mxGraphModel>
  </diagram>
</mxfile>
